<svg width="42" height="42" viewBox="0 0 42 42" fill="none" xmlns="http://www.w3.org/2000/svg">
<path d="M15.069 7.26745C17.7079 2.53359 19.0273 0.166656 21 0.166656C22.9727 0.166656 24.292 2.53357 26.9308 7.26743L27.6135 8.49214C28.3635 9.83734 28.7383 10.51 29.3231 10.9538C29.9077 11.3976 30.6356 11.5623 32.0918 11.8918L33.4177 12.1917C38.5418 13.3512 41.1041 13.9309 41.7137 15.8911C42.3233 17.8512 40.5766 19.8939 37.0831 23.9789L36.1793 25.0358C35.1866 26.1967 34.6902 26.7771 34.4668 27.4952C34.2437 28.2133 34.3187 28.9877 34.4687 30.5367L34.6054 31.9467C35.1335 37.3971 35.3977 40.1223 33.8018 41.3337C32.2058 42.5452 29.8068 41.4406 25.0089 39.2317L23.7677 38.66C22.4043 38.0323 21.7227 37.7183 21 37.7183C20.2773 37.7183 19.5956 38.0323 18.2323 38.66L16.991 39.2317C12.193 41.4406 9.79409 42.5452 8.19819 41.3337C6.6023 40.1223 6.86638 37.3971 7.39455 31.9467L7.53117 30.5367C7.68127 28.9877 7.75632 28.2133 7.533 27.4952C7.30971 26.7771 6.81336 26.1967 5.82063 25.0358L4.91684 23.9789C1.4234 19.8939 -0.323328 17.8512 0.286255 15.8911C0.895838 13.9309 3.458 13.3512 8.58234 12.1917L9.90807 11.8918C11.3642 11.5623 12.0923 11.3976 12.6769 10.9538C13.2615 10.51 13.6365 9.83737 14.3864 8.49214L15.069 7.26745Z" fill="#FFC83D"/>
</svg>
